# xmcd
# 
# Track frame offsets:
#     150
#     23915
#     45737
#     66942
#     85910
#     104795
#     122125
#     138507
#     145917
#     164532
#     185822
#     208777
# 
# Disc length: 3098
# 
# Revision: 11
# Processed by: cddbd v1.5.2PL0 Copyright (c) Steve Scherf et al.
# Submitted via: fre:ac v1.0.31
# 
DISCID=bd0c180c
DTITLE=Quiet Riot - Metal Health +2 2001 Remaster
DYEAR=1983
DGENRE=Heavy Metal
TTITLE0=Metal Health
TTITLE1=Cum On Feel The Noize (Slade)
TTITLE2=Don't Wanna Let You Go
TTITLE3=Slick Back Cadillac
TTITLE4=Love's A Bitch
TTITLE5=Breathless
TTITLE6=Run For Cover
TTITLE7=Battle Axe
TTITLE8=Let's Get Crazy
TTITLE9=Thunderbird
TTITLE10=Danger Zone (Previously Unreleased) (Bonus Track)
TTITLE11=Slick Back Cadillac (Live) (Bonus Track)
EXTD=
EXTT0=
EXTT1=
EXTT2=
EXTT3=
EXTT4=
EXTT5=
EXTT6=
EXTT7=
EXTT8=
EXTT9=
EXTT10=
EXTT11=
PLAYORDER=
